<svg xmlns="http://www.w3.org/2000/svg" xmlns:svg="http://www.w3.org/2000/svg" xmlns:xlink="http://www.w3.org/1999/xlink" id="svg2" width="24.069" height="24.069" version="1.1"><defs id="defs4"><linearGradient id="linearGradient3759"><stop style="stop-color:gray;stop-opacity:1" id="stop3761" offset="0"/><stop style="stop-color:gray;stop-opacity:0" id="stop3763" offset="1"/></linearGradient><linearGradient id="linearGradient5252"><stop style="stop-color:#f60;stop-opacity:1" id="stop5254" offset="0"/><stop style="stop-color:#366600;stop-opacity:0" id="stop5256" offset="1"/></linearGradient><radialGradient id="radialGradient3781" cx="18.393" cy="-4.205" r="10.322" fx="18.393" fy="-4.205" gradientUnits="userSpaceOnUse" xlink:href="#linearGradient3759"/><radialGradient id="radialGradient3021" cx="121.06" cy="350.987" r="191.734" fx="121.06" fy="350.987" gradientTransform="matrix(-1.5206571,-0.0355108,0.03164293,-1.3547282,570.45874,861.63556)" gradientUnits="userSpaceOnUse" xlink:href="#linearGradient3775"/><linearGradient id="linearGradient3775"><stop style="stop-color:#2bd712;stop-opacity:1" id="stop3777" offset="0"/><stop style="stop-color:#18ac00;stop-opacity:1" id="stop3779" offset="1"/></linearGradient><filter id="filter3127" width="1.5" height="1.5" x="-.25" y="-.25" color-interpolation-filters="sRGB"><feGaussianBlur id="feGaussianBlur3129" in="SourceAlpha" result="blur" stdDeviation="10"/><feColorMatrix id="feColorMatrix3131" result="bluralpha" type="matrix" values="1 0 0 0 0 0 1 0 0 0 0 0 1 0 0 0 0 0 0.5 0"/><feOffset id="feOffset3133" dx="5" dy="5" in="bluralpha" result="offsetBlur"/><feMerge id="feMerge3135"><feMergeNode id="feMergeNode3137" in="offsetBlur"/><feMergeNode id="feMergeNode3139" in="SourceGraphic"/></feMerge></filter><filter id="filter3044" width="1.5" height="1.5" x="-.25" y="-.25" color-interpolation-filters="sRGB"><feGaussianBlur id="feGaussianBlur3046" in="SourceAlpha" result="blur" stdDeviation="10"/><feColorMatrix id="feColorMatrix3048" result="bluralpha" type="matrix" values="1 0 0 0 0 0 1 0 0 0 0 0 1 0 0 0 0 0 0.5 0"/><feOffset id="feOffset3050" dx="5" dy="5" in="bluralpha" result="offsetBlur"/><feMerge id="feMerge3052"><feMergeNode id="feMergeNode3054" in="offsetBlur"/><feMergeNode id="feMergeNode3056" in="SourceGraphic"/></feMerge></filter></defs><metadata id="metadata7"/><g id="layer1" transform="translate(-323.55293,-407.38755)"><rect style="fill:none;stroke:none" id="rect3765" width="38.012" height="33.461" x="324.717" y="398.879"/><path style="fill:#8f8f8f;fill-opacity:1;stroke:#fff;stroke-width:12.07983017;stroke-linecap:round;stroke-linejoin:miter;stroke-miterlimit:4;stroke-opacity:1;stroke-dasharray:none;stroke-dashoffset:0;filter:url(#filter3127)" id="path3057" d="m 416.38111,350.99657 -62.125,62.34375 85.40625,-0.125 c -0.0421,52.22117 -42.39986,94.52518 -94.625,94.5 -31.28368,-0.0151 -59.01373,-15.21539 -76.21875,-38.625 l -2.86332,-3.56911 -57.23043,55.00661 c 31.77103,40.28089 80.99956,66.16084 136.28125,66.1875 95.86084,0.0462 173.61002,-77.63916 173.65625,-173.5 2e-5,-0.0416 10e-6,-0.0834 0,-0.125 l 70.53125,-0.125 -108.28125,-107.90625 -8.5631,-7.6483 z" transform="matrix(0.04139131,0,0,0.04139131,321.87488,403.69505)"/><path id="path3101" d="m 264.35967,466.96455 62.125,-62.34375 -85.40625,0.125 c 0.0421,-52.22117 42.39986,-94.52518 94.625,-94.5 31.28368,0.0151 59.01373,15.21539 76.21875,38.625 l 2.70083,3.82135 57.58232,-55.13258 c -31.77103,-40.28089 -81.18896,-66.28711 -136.47065,-66.31377 -95.86084,-0.0462 -173.61002,77.63916 -173.65625,173.5 -2e-5,0.0416 -1e-5,0.0834 0,0.125 l -70.531249,0.125 108.281249,107.90625 8.5631,7.6483 z" transform="matrix(0.04139131,0,0,0.04139131,320.67401,402.59431)" style="fill:#8f8f8f;fill-opacity:1;stroke:#fff;stroke-width:12.07983028;stroke-linecap:round;stroke-linejoin:miter;stroke-miterlimit:4;stroke-opacity:1;stroke-dasharray:none;stroke-dashoffset:0;filter:url(#filter3127)"/></g></svg>