<svg xmlns="http://www.w3.org/2000/svg" xmlns:svg="http://www.w3.org/2000/svg" xmlns:xlink="http://www.w3.org/1999/xlink" id="svg2" width="24.069" height="24.069" version="1.1"><defs id="defs4"><linearGradient id="linearGradient3759"><stop style="stop-color:gray;stop-opacity:1" id="stop3761" offset="0"/><stop style="stop-color:gray;stop-opacity:0" id="stop3763" offset="1"/></linearGradient><linearGradient id="linearGradient5252"><stop style="stop-color:#f60;stop-opacity:1" id="stop5254" offset="0"/><stop style="stop-color:#366600;stop-opacity:0" id="stop5256" offset="1"/></linearGradient><radialGradient id="radialGradient3781" cx="18.393" cy="-4.205" r="10.322" fx="18.393" fy="-4.205" gradientUnits="userSpaceOnUse" xlink:href="#linearGradient3759"/></defs><metadata id="metadata7"/><g id="layer1" transform="translate(-323.55293,-407.38755)"><path style="fill:#8f8f8f;fill-opacity:1;fill-rule:nonzero;stroke:none;stroke-width:1;marker:none;visibility:visible;display:inline;overflow:visible;enable-background:accumulate" id="path2661" d="m 331.80377,416.33745 c 2.67487,1.19267 5.33725,2.39445 8.14501,3.49025 1.33889,-1.21805 2.7267,-2.29304 4.99178,-0.80204 2.15558,1.81203 1.73982,3.41288 1.32211,5.01358 -1.02164,1.84521 -2.37475,2.05865 -3.76619,2.08331 -2.64417,0.0146 -3.42862,-2.51193 -3.38394,-3.71712 -0.14114,-0.22685 -0.17203,-0.44176 -0.11981,-0.64768 -2.66977,-1.09086 -5.34736,-2.25196 -8.02876,-3.44742 -0.80467,1.46316 -2.43702,1.83137 -2.92362,1.63919 -3.05608,-0.37674 -3.38791,-2.18365 -3.37169,-3.75033 0.63424,-2.88561 2.62067,-4.08841 4.5335,-3.3473 2.42324,0.75514 2.34459,2.44672 2.60161,3.48556 z"/></g></svg>