<svg xmlns="http://www.w3.org/2000/svg" xmlns:svg="http://www.w3.org/2000/svg" xmlns:xlink="http://www.w3.org/1999/xlink" id="svg2" width="24.069" height="24.069" version="1.1"><defs id="defs4"><linearGradient id="linearGradient3759"><stop style="stop-color:gray;stop-opacity:1" id="stop3761" offset="0"/><stop style="stop-color:gray;stop-opacity:0" id="stop3763" offset="1"/></linearGradient><linearGradient id="linearGradient5252"><stop style="stop-color:#f60;stop-opacity:1" id="stop5254" offset="0"/><stop style="stop-color:#366600;stop-opacity:0" id="stop5256" offset="1"/></linearGradient><radialGradient id="radialGradient3781" cx="18.393" cy="-4.205" r="10.322" fx="18.393" fy="-4.205" gradientUnits="userSpaceOnUse" xlink:href="#linearGradient3759"/></defs><metadata id="metadata7"/><g id="layer1" transform="translate(-323.55293,-407.38755)"><rect style="fill:none;stroke:none" id="rect3765" width="53.791" height="47.351" x="-52.528" y="-21.514" transform="translate(323.55293,407.38755)"/><path style="fill:#8f8f8f;stroke:none;fill-opacity:1" id="rect4246" d="m 335.98388,421.20838 1.10186,-1.10784 1.64593,1.63705 -0.27546,0.27696 -0.27547,0.27696 -0.27546,0.27696 -0.27547,0.27696 z"/><path style="fill:#8f8f8f;stroke:none;fill-opacity:1" id="path4224-1" d="M 9.65625 4.8125 C 8.3480805 4.8160392 7.0578994 5.3117 6.0625 6.3125 C 4.0717012 8.3141 4.0609 11.540451 6.0625 13.53125 C 8.0641 15.522049 11.321701 15.53285 13.3125 13.53125 C 15.303299 11.52965 15.28285 8.2720488 13.28125 6.28125 C 12.28045 5.2858506 10.96442 4.8089608 9.65625 4.8125 z M 9.59375 5.8125 C 10.622006 5.8097181 11.650845 6.18634 12.4375 6.96875 C 14.01081 8.53357 14.03357 11.08294 12.46875 12.65625 C 10.90393 14.22956 8.3545601 14.25232 6.78125 12.6875 C 5.2079399 11.12268 5.18518 8.5733101 6.75 7 C 7.53241 6.213345 8.5654945 5.8152819 9.59375 5.8125 z" transform="translate(323.55293,407.38755)"/><rect style="fill:#8f8f8f;stroke:none;fill-opacity:1" id="rect4286" width="3.094" height="5.461" x="-62.461" y="537.385" rx=".4" ry=".5" transform="matrix(0.70519117,-0.70901722,0.70901722,0.70519117,0,0)"/></g></svg>