<svg xmlns="http://www.w3.org/2000/svg" xmlns:svg="http://www.w3.org/2000/svg" xmlns:xlink="http://www.w3.org/1999/xlink" id="svg2" width="24.069" height="24.069" version="1.1"><defs id="defs4"><linearGradient id="linearGradient3759"><stop style="stop-color:gray;stop-opacity:1" id="stop3761" offset="0"/><stop style="stop-color:gray;stop-opacity:0" id="stop3763" offset="1"/></linearGradient><linearGradient id="linearGradient5252"><stop style="stop-color:#f60;stop-opacity:1" id="stop5254" offset="0"/><stop style="stop-color:#366600;stop-opacity:0" id="stop5256" offset="1"/></linearGradient><radialGradient id="radialGradient3781" cx="18.393" cy="-4.205" r="10.322" fx="18.393" fy="-4.205" gradientUnits="userSpaceOnUse" xlink:href="#linearGradient3759"/><pattern id="pattern3409" width="2" height="9" patternTransform="translate(-9,7)" patternUnits="userSpaceOnUse"><g id="g3405" transform="translate(9,-7)"><path style="fill:none;fill-opacity:1;stroke:#fff;stroke-width:1;stroke-linecap:butt;stroke-linejoin:bevel;stroke-miterlimit:0;stroke-dasharray:none;stroke-opacity:1" id="path3401" d="M -8.5,7.5 L -8.5,15.5"/><path style="fill:none;fill-opacity:1;stroke:#000;stroke-width:1;stroke-linecap:butt;stroke-linejoin:bevel;stroke-miterlimit:0;stroke-dasharray:none;stroke-opacity:1" id="path3403" d="M -7.5,7.5 L -7.5,15.5"/></g></pattern><pattern id="pattern3386" width="2" height="5" patternTransform="translate(-8.5,7.5)" patternUnits="userSpaceOnUse"><g id="g3382" transform="translate(8.5,-7.5)"><path style="fill:none;fill-opacity:1;stroke:#fff;stroke-width:1;stroke-linecap:butt;stroke-linejoin:bevel;stroke-miterlimit:0;stroke-dasharray:none;stroke-opacity:1" id="path3370" d="M -7,8 L -7,12"/><path id="path3376" d="M -8,8 L -8,12" style="fill:none;fill-opacity:1;stroke:#000;stroke-width:1;stroke-linecap:butt;stroke-linejoin:bevel;stroke-miterlimit:0;stroke-dasharray:none;stroke-opacity:1"/></g></pattern></defs><metadata id="metadata7"/><g id="layer1" transform="translate(-323.55293,-407.38755)"><path id="path3451" d="m 330.08809,429.07644 9.07031,-9.07031 3.88728,0 2.59151,-2.59152 0,-2.59152 -1.29576,-1.29576 -1.29575,1.29576 -1.29576,1.29576 -2.59152,0 0,-2.59152 1.29576,-1.29576 1.29576,-1.29575 -1.29576,-1.29576 -2.59152,0 -2.59152,2.59151 0,3.88728 -9.07031,9.07031 0,2.59152 1.29576,1.29576 2.59152,0 z" style="fill:#8f8f8f;stroke:none;fill-opacity:1"/></g></svg>